HIERARCHY
ROOT Hips
{
	OFFSET -0.001795 -0.223333 0.028219
	CHANNELS 6 Xposition Yposition Zposition Zrotation Yrotation Xrotation 
	JOINT LeftUpLeg
	{
		OFFSET 0.069520 -0.091406 -0.006815
		CHANNELS 3 Zrotation Yrotation Xrotation
		JOINT LeftLeg
		{
			OFFSET 0.034277 -0.375199 -0.004496
			CHANNELS 3 Zrotation Yrotation Xrotation
			JOINT LeftFoot
			{
				OFFSET -0.013596 -0.397961 -0.043693
				CHANNELS 3 Zrotation Yrotation Xrotation
				JOINT LeftToe
				{
					OFFSET 0.026358 -0.055791 0.119288
					CHANNELS 3 Zrotation Yrotation Xrotation
					End Site
					{
						OFFSET 0.000000 0.000000 0.000000
					}
				}
			}
		}
	}
	JOINT RightUpLeg
	{
		OFFSET -0.067670 -0.090522 -0.004320
		CHANNELS 3 Zrotation Yrotation Xrotation
		JOINT RightLeg
		{
			OFFSET -0.038290 -0.382569 -0.008850
			CHANNELS 3 Zrotation Yrotation Xrotation
			JOINT RightFoot
			{
				OFFSET 0.015774 -0.398415 -0.042312
				CHANNELS 3 Zrotation Yrotation Xrotation
				JOINT RightToe
				{
					OFFSET -0.025372 -0.048144 0.123348
					CHANNELS 3 Zrotation Yrotation Xrotation
					End Site
					{
						OFFSET 0.000000 0.000000 0.000000
					}
				}
			}
		}
	}
	JOINT Spine
	{
		OFFSET -0.002533 0.108963 -0.026696
		CHANNELS 3 Zrotation Yrotation Xrotation
		JOINT Spine1
		{
			OFFSET 0.005487 0.135180 0.001092
			CHANNELS 3 Zrotation Yrotation Xrotation
			JOINT Spine2
			{
				OFFSET 0.001457 0.052922 0.025425
				CHANNELS 3 Zrotation Yrotation Xrotation
				JOINT Neck
				{
					OFFSET -0.002778 0.213870 -0.042857
					CHANNELS 3 Zrotation Yrotation Xrotation
					JOINT Head
					{
						OFFSET 0.005152 0.064970 0.051349
						CHANNELS 3 Zrotation Yrotation Xrotation
						End Site
						{
							OFFSET 0.000000 0.000000 0.000000
						}
					}
				}
				JOINT LeftShoulder
				{
					OFFSET 0.078845 0.121749 -0.034090
					CHANNELS 3 Zrotation Yrotation Xrotation
					JOINT LeftArm
					{
						OFFSET 0.090977 0.030469 -0.008868
						CHANNELS 3 Zrotation Yrotation Xrotation
						JOINT LeftForeArm
						{
							OFFSET 0.259612 -0.012772 -0.027456
							CHANNELS 3 Zrotation Yrotation Xrotation
							JOINT LeftHand
							{
								OFFSET 0.249234 0.008986 -0.001171
								CHANNELS 3 Zrotation Yrotation Xrotation
								End Site
								{
									OFFSET 0.000000 0.000000 0.000000
								}
							}
						}
					}
				}
				JOINT RightShoulder
				{
					OFFSET -0.081759 0.118833 -0.038615
					CHANNELS 3 Zrotation Yrotation Xrotation
					JOINT RightArm
					{
						OFFSET -0.096012 0.032551 -0.009143
						CHANNELS 3 Zrotation Yrotation Xrotation
						JOINT RightForeArm
						{
							OFFSET -0.253742 -0.013329 -0.021401
							CHANNELS 3 Zrotation Yrotation Xrotation
							JOINT RightHand
							{
								OFFSET -0.255298 0.007772 -0.005559
								CHANNELS 3 Zrotation Yrotation Xrotation
								End Site
								{
									OFFSET 0.000000 0.000000 0.000000
								}
							}
						}
					}
				}
			}
		}
	}
}
MOTION
Frames: 14
Frame Time: 0.050000
0.000000 0.896561 0.000000 4.308375 -8.954686 -6.330067 -5.242778 -2.061602 -15.699766 -7.456602 3.772407 35.477963 10.236619 20.727052 4.282102 0.000000 0.000000 0.000000 -3.353191 0.095849 0.324577 10.538148 -0.627720 66.394195 -1.863293 -12.025631 26.467713 0.000000 0.000000 0.000000 -11.298831 1.390986 17.919069 6.130007 -0.305996 -33.695174 -0.464770 14.088138 30.619777 11.668663 -5.646128 -19.876083 0.000000 0.000000 0.000000 -32.877823 -0.577079 -5.019971 -31.647011 13.487183 -7.939961 -27.945977 -23.112711 6.447107 0.000000 0.000000 0.000000 29.727871 10.855920 8.958610 37.842394 15.396693 -2.966525 84.137930 81.096190 84.301196 0.000000 0.000000 0.000000 
-0.008271 0.887251 0.050347 4.311772 -5.710168 -8.556882 -5.332706 -1.594476 -11.243754 -7.492352 3.461792 38.406716 9.694439 19.990912 0.664323 0.000000 0.000000 0.000000 -4.386522 0.378156 -4.805980 14.493494 -5.552538 71.263334 -6.040228 -16.930965 19.414918 0.000000 0.000000 0.000000 -11.891096 1.495256 20.433344 10.889897 -1.535680 -30.719353 -6.865672 9.634879 28.177500 9.978372 -4.687273 -20.909618 0.000000 0.000000 0.000000 -34.861933 -2.939888 -2.681460 -30.662092 5.526780 -6.087836 -29.460317 -29.846943 8.940292 0.000000 0.000000 0.000000 32.136066 12.502080 9.262845 37.559733 8.605116 -4.391985 54.659248 69.456952 44.876233 0.000000 0.000000 0.000000 
-0.018310 0.895947 0.100953 2.970828 -5.364148 -9.887928 -4.618183 -0.540797 -3.544307 -6.206103 2.495311 35.508563 8.346798 17.478392 2.430914 0.000000 0.000000 0.000000 -3.308908 1.101134 -13.889231 16.659584 -7.580311 70.177669 -9.088567 -21.613762 15.845438 0.000000 0.000000 0.000000 -8.863498 1.028724 22.710551 5.619472 -0.600080 -30.008353 -3.617080 2.881451 29.136907 2.926178 -0.908386 -20.535380 0.000000 0.000000 0.000000 -38.478333 -6.164966 2.538399 -29.633610 -7.767813 -3.846600 -28.309090 -35.782406 10.739498 0.000000 0.000000 0.000000 30.054616 10.156308 4.774790 41.413438 0.309742 -6.465540 37.948250 54.575457 22.720464 0.000000 0.000000 0.000000 
-0.030192 0.918599 0.154400 1.471790 -2.735690 -9.838111 -3.345113 0.498793 4.272375 -1.903772 -0.010046 27.617384 6.141486 13.551757 4.827003 0.000000 0.000000 0.000000 -3.215061 1.460764 -18.739850 16.738717 -7.779743 58.746854 -10.669736 -24.202070 14.478533 0.000000 0.000000 0.000000 -6.378074 0.389013 22.640279 8.792071 -1.039907 -31.430256 -7.932939 -0.761605 30.335557 2.668542 -1.064208 -22.317327 0.000000 0.000000 0.000000 -36.057460 -7.963475 4.990531 -30.047611 -18.679392 -1.996550 -33.890078 -43.825086 16.172131 0.000000 0.000000 0.000000 30.179712 6.843076 1.857095 39.041106 -7.314899 -8.185747 33.997409 43.645588 15.350585 0.000000 0.000000 0.000000 
-0.044199 0.950145 0.211086 0.092861 -0.537492 -9.556588 -1.372366 1.235495 11.860738 -0.139413 -0.565150 17.423147 5.080139 12.657917 10.806727 0.000000 0.000000 0.000000 -2.525544 1.778823 -22.103537 13.683212 -5.159934 43.745055 -9.433410 -21.897494 19.832845 0.000000 0.000000 0.000000 -4.316306 -0.108988 22.581200 9.219183 -1.030511 -31.851699 -8.622080 -6.053523 29.863927 0.192324 -0.095479 -22.360898 0.000000 0.000000 0.000000 -33.934572 -9.547192 7.747619 -29.760628 -31.107664 0.283132 -35.820357 -55.327405 23.022644 0.000000 0.000000 0.000000 25.436101 3.881292 -1.072961 38.535582 -16.383778 -10.304286 27.844818 33.278215 8.918601 0.000000 0.000000 0.000000 
-0.060258 0.978900 0.270627 -0.691546 1.669311 -8.262860 -0.291252 1.595159 17.852120 2.009977 -0.734499 9.281121 2.666103 10.274436 16.826275 0.000000 0.000000 0.000000 -1.611177 1.856798 -22.125935 7.541819 -1.665086 24.767171 -7.381934 -18.598888 23.676232 0.000000 0.000000 0.000000 -2.499403 -0.485581 20.708395 13.217702 -1.366001 -34.603981 -13.852401 -8.872355 30.805045 -0.983018 0.407947 -22.831984 0.000000 0.000000 0.000000 -29.376080 -10.659442 8.558767 -29.102859 -39.767139 2.210851 -37.863925 -65.074650 29.964722 0.000000 0.000000 0.000000 23.487594 1.184123 -2.906515 35.589567 -23.685337 -11.271969 19.756726 24.089418 4.445366 0.000000 0.000000 0.000000 
-0.079349 0.998583 0.333935 -0.805208 5.135059 -6.095452 1.641028 1.225335 20.340450 3.444213 -0.697883 4.868383 0.772493 8.892862 20.443642 0.000000 0.000000 0.000000 -2.073129 1.511623 -20.640637 2.406117 -0.186226 9.213457 -5.438320 -15.328010 26.940365 0.000000 0.000000 0.000000 -2.249157 -0.545666 18.446230 13.452120 -0.970750 -37.411183 -13.902188 -14.714564 32.677722 -2.418923 0.518585 -23.421021 0.000000 0.000000 0.000000 -26.981581 -12.203779 10.560216 -27.214348 -48.348310 3.540849 -23.336108 -73.063885 24.278965 0.000000 0.000000 0.000000 16.509071 -2.207544 -4.319174 35.188940 -31.532684 -13.537345 15.046752 19.527751 2.634878 0.000000 0.000000 0.000000 
-0.101652 1.000353 0.401769 -0.349757 5.288160 -4.822996 2.717487 1.081848 22.207162 3.421159 -0.685003 4.766305 -0.047952 8.563478 23.451578 0.000000 0.000000 0.000000 -2.023175 1.474189 -19.972494 1.450310 -0.083855 3.986358 -5.671958 -15.610615 26.913394 0.000000 0.000000 0.000000 -1.592116 -0.477889 14.740052 17.573084 -2.002023 -34.651103 -17.766189 -15.679553 28.950996 -1.693666 0.066165 -19.567872 0.000000 0.000000 0.000000 -23.690465 -10.929151 8.961514 -26.646894 -50.914532 4.703674 -10.585593 -78.327740 16.023918 0.000000 0.000000 0.000000 15.709137 -4.101255 -5.326406 26.465033 -37.722387 -10.940792 13.294093 17.871464 2.092831 0.000000 0.000000 0.000000 
-0.128412 0.990657 0.474343 0.069299 4.832734 -3.606856 4.644778 0.750503 23.964077 2.256403 -0.552777 5.437532 -1.171736 7.568172 25.522669 0.000000 0.000000 0.000000 -0.847668 1.720304 -20.291693 2.057914 -0.134048 6.898652 -6.072682 -16.457505 30.777593 0.000000 0.000000 0.000000 -1.136008 -0.344014 10.502496 20.572741 -2.494797 -34.476836 -21.621658 -15.787106 28.984673 -0.596244 -0.750356 -16.655689 0.000000 0.000000 0.000000 -23.249179 -9.992114 8.419478 -23.353521 -49.444288 3.252038 -13.778070 -81.773758 19.619682 0.000000 0.000000 0.000000 13.506927 -4.287909 -4.929637 22.969290 -42.197305 -10.340115 11.028894 16.941143 1.681219 0.000000 0.000000 0.000000 
-0.159459 0.972913 0.549766 0.047043 3.354130 -3.699537 8.510667 0.007391 24.323458 -0.663756 -0.346272 12.129992 -1.941459 6.961581 27.784974 0.000000 0.000000 0.000000 0.544413 1.963319 -19.746255 4.794991 -0.669296 12.843454 -7.289943 -18.290364 28.946775 0.000000 0.000000 0.000000 0.264165 -0.380686 8.825440 18.314577 -2.412361 -32.619917 -19.739845 -17.276261 27.906790 1.666052 -2.677910 -18.235921 0.000000 0.000000 0.000000 -24.265090 -9.780055 9.124117 -25.712521 -46.583620 3.281006 -35.578870 -81.290425 39.263485 0.000000 0.000000 0.000000 11.312130 -7.215270 -6.034787 21.726022 -41.382714 -9.740560 8.695663 15.775341 1.230305 0.000000 0.000000 0.000000 
-0.192689 0.951898 0.621772 -0.488424 -1.027251 -4.534033 11.218494 -0.095500 21.132109 -2.214270 -0.129343 27.760631 -4.898121 3.364345 30.038251 0.000000 0.000000 0.000000 2.853169 2.516491 -20.024659 7.980656 -1.463280 21.741520 -7.575216 -19.315430 22.700393 0.000000 0.000000 0.000000 2.432446 -0.515756 8.611127 15.583289 -1.832820 -33.283416 -18.553759 -16.993462 29.408973 1.416035 -3.027644 -15.678355 0.000000 0.000000 0.000000 -26.495630 -7.085095 8.891448 -27.683023 -40.136241 1.741190 -61.981611 -75.658122 59.233602 0.000000 0.000000 0.000000 13.970246 -7.411939 -7.554389 21.083817 -36.937898 -8.508528 6.654328 14.522857 0.868118 0.000000 0.000000 0.000000 
-0.224907 0.934999 0.685083 -0.921449 -5.571371 -6.144589 12.102433 0.177635 15.700355 -1.772075 0.448800 46.862064 -3.249166 2.782253 22.988311 0.000000 0.000000 0.000000 5.171809 2.515412 -16.933264 10.658842 -2.004687 27.056098 -7.323653 -19.126269 14.777947 0.000000 0.000000 0.000000 3.321280 -0.672988 10.624806 14.708920 -2.015195 -31.777646 -15.826466 -14.901972 28.082108 1.147671 -2.789658 -13.176758 0.000000 0.000000 0.000000 -30.331398 -5.527333 8.843478 -31.344103 -31.283151 -0.151408 -58.481493 -67.612947 49.342431 0.000000 0.000000 0.000000 19.294059 -5.177768 -8.506015 25.583659 -32.301066 -9.130351 3.943842 16.905276 0.696386 0.000000 0.000000 0.000000 
-0.254806 0.924633 0.741030 -1.019394 -12.969367 -7.816615 10.067273 0.621419 8.601442 1.687246 1.786066 64.728965 -1.615134 1.753804 12.988133 0.000000 0.000000 0.000000 7.794097 2.363672 -13.832114 11.770475 -1.398105 32.434022 -6.815030 -18.474605 11.755103 0.000000 0.000000 0.000000 3.551496 -0.783804 14.061076 14.103565 -2.164117 -31.140103 -12.490198 -9.357075 27.828344 -0.465638 -1.306128 -13.615125 0.000000 0.000000 0.000000 -33.519541 -2.478716 6.937033 -34.114680 -21.641793 -2.675478 -54.695808 -60.172823 40.404118 0.000000 0.000000 0.000000 23.452622 -2.435028 -8.160315 29.974830 -25.232560 -9.006693 6.179933 20.178488 1.215273 0.000000 0.000000 0.000000 
-0.283413 0.917638 0.793002 -0.325078 -18.478194 -9.067931 6.905555 0.385926 -0.429974 7.764459 0.736666 75.598825 1.779282 4.381571 1.636312 0.000000 0.000000 0.000000 8.920198 1.701091 -9.963011 11.185365 -0.164154 35.627422 -5.172367 -15.321151 9.338878 0.000000 0.000000 0.000000 2.498337 -0.609623 15.869647 13.354889 -2.480386 -29.118150 -8.923047 -4.553579 27.597276 -1.331914 -0.244630 -12.649546 0.000000 0.000000 0.000000 -36.191390 -0.590976 5.167651 -36.044871 -11.716280 -5.258526 -46.188147 -53.799319 29.782721 0.000000 0.000000 0.000000 26.349135 1.396637 -6.315347 34.215384 -18.158771 -8.552158 7.988848 25.683838 2.003967 0.000000 0.000000 0.000000 
